<?xml version="1.0" encoding="UTF-8"?>
<svg enable-background="new 0 0 495.99 495.99" version="1.1" viewBox="0 0 495.99 495.99" xml:space="preserve" xmlns="http://www.w3.org/2000/svg">
			<path fill="#ffffff" d="m311.96 247.99c0-35.288-28.712-64-64-64s-64 28.712-64 64 28.712 64 64 64 64-28.712 64-64zm-112 0c0-26.472 21.528-48 48-48s48 21.528 48 48-21.528 48-48 48-48-21.528-48-48z"/>
			<path fill="#ffffff" d="m343.96 63.987c-35.288 0-64 28.712-64 64s28.712 64 64 64c14.472 0 28.648-4.968 39.936-13.984l-9.992-12.496c-8.576 6.856-18.936 10.488-29.944 10.488-26.472 0-48-21.528-48-48s21.528-48 48-48 48 21.528 48 48c0 10.464-3.304 20.4-9.552 28.744l12.808 9.592c8.336-11.136 12.752-24.392 12.752-38.336-8e-3 -35.296-28.72-64.008-64.008-64.008z"/>
			<path fill="#ffffff" d="m311.96 127.99c0 17.648 14.352 32 32 32s32-14.352 32-32-14.352-32-32-32-32 14.352-32 32zm48 0c0 8.824-7.176 16-16 16s-16-7.176-16-16 7.176-16 16-16 16 7.176 16 16z"/>
			<path fill="#ffffff" d="m95.958 151.99c-35.288 0-64 28.712-64 64s28.712 64 64 64 64-28.712 64-64-28.712-64-64-64zm0 112c-26.472 0-48-21.528-48-48s21.528-48 48-48 48 21.528 48 48-21.528 48-48 48z"/>
			<path fill="#ffffff" d="m95.958 183.99c-17.648 0-32 14.352-32 32s14.352 32 32 32 32-14.352 32-32-14.352-32-32-32zm0 48c-8.824 0-16-7.176-16-16s7.176-16 16-16 16 7.176 16 16-7.176 16-16 16z"/>
			<path fill="#ffffff" d="m223.96 399.99c0 35.288 28.712 64 64 64s64-28.712 64-64-28.712-64-64-64-64 28.712-64 64zm112 0c0 26.472-21.528 48-48 48s-48-21.528-48-48 21.528-48 48-48 48 21.528 48 48z"/>
			<path fill="#ffffff" d="m255.96 399.99c0 17.648 14.352 32 32 32s32-14.352 32-32-14.352-32-32-32-32 14.352-32 32zm48 0c0 8.824-7.176 16-16 16s-16-7.176-16-16 7.176-16 16-16 16 7.176 16 16z"/>
			<path fill="#ffffff" d="m420.38 69.803-0.096 0.096c-7.936-10.408-17.968-19.272-29.664-25.832-38.72-21.728-88.328-13.472-117.98 19.616-13.424 14.992-21.72 33.328-24 53.024-2.152 18.512-15.08 34.296-33.744 41.176l2.768 7.504-3.688-7.16c-17.352 6.616-37.456 2.224-51.216-11.168-9.008-8.768-19.64-15.52-31.208-20.136 17.184-16.504 37.736-29.304 60.128-37.256l-5.352-15.08c-27.36 9.72-52.192 26.04-72.192 47.232-4.824-0.944-9.728-1.608-14.712-1.824-1.728-0.072-3.44-0.016-5.152 8e-3 29.536-35.536 69.992-59.592 115.69-68.376l-3.024-15.712c-54.912 10.552-102.8 41.52-135.23 87.256-9.152 2.456-17.88 6.24-25.904 11.2 40.08-71.144 115.74-117.38 199.34-118.37l-0.184-16c-104.33 1.232-197.23 68.248-231.36 166.78-3.712 6.136-6.784 12.696-9.008 19.656-8.36 26.208-5.224 54.72 8.624 78.232 13.856 23.528 37.152 40.096 63.912 45.448 17.224 3.44 35.024 2.12 51.464-3.84 18.624-6.744 38.936-2.536 53.032 10.984l1.192 1.12c14.6 13.528 20.208 33.432 14.296 50.704-4.144 12.088-5.736 24.752-4.88 37.352-21.944-7.736-42.264-20.024-59.336-36.088l-10.968 11.648c20.784 19.56 45.984 34.008 73.152 42.168 0.04 0.152 0.064 0.296 0.104 0.448 1.688 6.36 4.08 12.368 6.952 18.072-44.544-10.4-83.992-35.68-112.44-72.472l-12.656 9.792c34.08 44.072 82.792 72.832 137.43 81.336 5.944 7.016 12.84 13.128 20.448 18.192-81.648-4.544-154.73-51.344-192.86-124.58l-14.192 7.392c42.92 82.432 127.26 133.64 220.1 133.64 8.36 0 16.816-0.456 25.152-1.312 5.032 0.824 10.152 1.272 15.32 1.272 6.768 0 13.608-0.736 20.424-2.264 25.76-5.768 47.48-21.344 61.152-43.848 13.672-22.512 17.504-48.944 10.76-74.4-3.592-13.576-9.928-25.896-18.832-36.624-16.688-20.104-23.672-44.464-19.152-66.84 0.2-1 0.384-2 0.552-3.016 3.952-23.56 19.464-43.472 42.56-54.632 8.272-4 15.832-9.32 22.632-15.52 4.864 15.872 7.432 32.344 7.432 49.184 0 16.344-2.352 32.512-7 48.048l15.328 4.576c5.088-17.024 7.664-34.728 7.664-52.632 0-21.576-3.84-42.608-11.12-62.672 0.368-0.496 0.808-0.936 1.168-1.44 3.608-5.032 6.616-10.4 9.152-15.952 10.968 25.112 16.8 52.44 16.8 80.056 0 29.648-6.344 58.184-18.856 84.832l14.488 6.808c13.52-28.792 20.376-59.624 20.376-91.64 0-35.688-8.928-70.968-25.736-102.2 1.8-9.544 2.2-19.36 1.048-29.12 26.464 38.312 40.696 83.624 40.696 131.32 0 48.136-14.64 94.32-42.328 133.55l13.072 9.224c29.608-41.944 45.256-91.32 45.256-142.78-0.032-67.728-26.872-131.02-75.608-178.17zm-11.384 104.76c-7.76 10.832-18.152 19.592-30.064 25.344-27.424 13.24-46.632 38.064-51.384 66.392-0.144 0.848-0.296 1.68-0.456 2.504-5.48 27.128 2.728 56.368 22.52 80.216 7.408 8.928 12.68 19.184 15.672 30.496 5.616 21.216 2.432 43.24-8.968 62-11.392 18.752-29.496 31.736-50.976 36.544-41.36 9.248-83.832-16.56-94.72-57.56-4.064-15.32-3.512-31.312 1.6-46.24 7.968-23.248 0.688-49.8-18.552-67.632l-0.992-0.936c-12.688-12.176-29.2-18.608-46.184-18.608-7.8 0-15.696 1.36-23.368 4.144-13.68 4.96-28.512 6.072-42.872 3.192-22.304-4.464-41.712-18.272-53.264-37.88-11.704-19.88-14.248-43.048-7.168-65.248 10.704-33.536 44.008-56.736 78.912-55.312 20.016 0.848 38.784 8.856 52.856 22.544 18.2 17.704 44.912 23.464 68.064 14.648l-2.84-7.48 3.616 7.184c24.352-8.984 41.248-29.808 44.096-54.344 1.904-16.4 8.832-31.68 20.032-44.2 24.672-27.552 65.992-34.416 98.224-16.336 20.304 11.384 34.24 30.048 39.248 52.544 4.952 22.232 0.2 45.552-13.032 64.024z"/>
			<path fill="#ffffff" d="m417.57 406.2 11.704 10.904c3.936-4.224 7.752-8.608 11.344-13.032l-12.432-10.08c-3.36 4.136-6.928 8.248-10.616 12.208z"/>
			<path fill="#ffffff" d="m277.89 1.843c-5.4-0.648-10.84-1.152-16.336-1.464l-0.912 15.976c5.16 0.296 10.28 0.76 15.344 1.368l1.904-15.88z"/>
			<path fill="#ffffff" d="m29.942 327.48-15.032 5.48c1.976 5.416 4.176 10.856 6.552 16.168l14.608-6.528c-2.224-4.968-4.28-10.056-6.128-15.12z"/>
			<path fill="#ffffff" d="m435.67 354.86-13.896-7.928c-2.752 4.832-5.768 9.624-8.952 14.256l13.184 9.064c3.44-5 6.688-10.176 9.664-15.392z"/>
			<path fill="#ffffff" d="m224.46 49.403c5.312-0.624 10.728-1.032 16.112-1.232l-0.584-15.992c-5.808 0.216-11.656 0.664-17.384 1.336l1.856 15.888z"/>
			<path fill="#ffffff" d="m72.862 344.64-14 7.744c2.8 5.064 5.864 10.12 9.12 15.008l13.328-8.848c-3.016-4.536-5.856-9.216-8.448-13.904z"/>
			<path fill="#ffffff" d="m205.41 85.459c4.912-1.28 9.92-2.352 14.896-3.168l-2.608-15.792c-5.456 0.904-10.952 2.072-16.328 3.48l4.04 15.48z"/>
			<path fill="#ffffff" d="m122.3 359.44c-3.552-4.008-6.96-8.232-10.112-12.552l-12.92 9.44c3.456 4.728 7.176 9.344 11.064 13.736l11.968-10.624z"/>
			<path fill="#ffffff" d="m403.86 310.6c-2.064 5.112-4.408 10.192-6.968 15.096l14.176 7.408c2.808-5.36 5.368-10.92 7.624-16.52l-14.832-5.984z"/>
</svg>
